<svg width="16" height="14" viewBox="0 0 16 14" fill="none" xmlns="http://www.w3.org/2000/svg">
<path d="M9.92037 13.4204L15.5454 7.79545C15.6499 7.69106 15.7329 7.56708 15.7895 7.4306C15.8461 7.29413 15.8752 7.14782 15.8752 7.00007C15.8752 6.85232 15.8461 6.70602 15.7895 6.56954C15.7329 6.43307 15.6499 6.30909 15.5454 6.2047L9.92037 0.579699C9.81592 0.475249 9.69192 0.392395 9.55545 0.335867C9.41898 0.279339 9.27271 0.250244 9.125 0.250244C8.97729 0.250244 8.83102 0.279339 8.69455 0.335867C8.55808 0.392395 8.43408 0.475249 8.32963 0.579699C8.11868 0.790646 8.00017 1.07675 8.00017 1.37507C8.00017 1.6734 8.11868 1.9595 8.32963 2.17045L12.0343 5.87507H1.25C0.951631 5.87507 0.665483 5.9936 0.454505 6.20458C0.243526 6.41556 0.125 6.70171 0.125 7.00007C0.125 7.29844 0.243526 7.58459 0.454505 7.79557C0.665483 8.00655 0.951631 8.12507 1.25 8.12507H12.0343L8.32963 11.8297C8.22479 11.9339 8.1416 12.0579 8.08483 12.1944C8.02806 12.3309 7.99884 12.4772 7.99884 12.6251C7.99884 12.7729 8.02806 12.9193 8.08483 13.0558C8.1416 13.1923 8.22479 13.3162 8.32963 13.4204C8.43401 13.525 8.55799 13.608 8.69447 13.6646C8.83095 13.7212 8.97725 13.7503 9.125 13.7503C9.27275 13.7503 9.41905 13.7212 9.55553 13.6646C9.69201 13.608 9.81599 13.525 9.92037 13.4204Z" fill="#41403E"/>
</svg>
